PathFileType	4	(X/Y/Z)	/Users/itak/Documents/Research/Walk-IL/dataset/trc/00040_00004.trc
DataRate	CameraRate	NumFrames	NumMarkers	Units	OrigDataRate	OrigDataStartFrame	OrigNumFrames
100.000000	100.000000	4	54	mm	100.000000	304	487
Frame#	Time	RPSI			LPSI			L3			STRN			T10			C7			CLAV			RBAK			LBAK			LSHO			LUPA			LAEL			LAOL			LWTS			LWPS			LFRA			LIFD			LHPS			LHTS			RSHO			RUPA			RAEL			RAOL			RWTS			RWPS			RFRA			RIFD			RHTS			RHPS			RBHD			LFHD			RFHD			LBHD			LHIP			RHIP			RASI			LASI			LKNE			LTHI			LANK			LTIP			LTOE			LMT1			LMT5			LHEE			RKNE			RTHI			RANK			RTIP			RTOE			RMT1			RMT5			RHEE			*53			
		X1	Y1	Z1	X2	Y2	Z2	X3	Y3	Z3	X4	Y4	Z4	X5	Y5	Z5	X6	Y6	Z6	X7	Y7	Z7	X8	Y8	Z8	X9	Y9	Z9	X10	Y10	Z10	X11	Y11	Z11	X12	Y12	Z12	X13	Y13	Z13	X14	Y14	Z14	X15	Y15	Z15	X16	Y16	Z16	X17	Y17	Z17	X18	Y18	Z18	X19	Y19	Z19	X20	Y20	Z20	X21	Y21	Z21	X22	Y22	Z22	X23	Y23	Z23	X24	Y24	Z24	X25	Y25	Z25	X26	Y26	Z26	X27	Y27	Z27	X28	Y28	Z28	X29	Y29	Z29	X30	Y30	Z30	X31	Y31	Z31	X32	Y32	Z32	X33	Y33	Z33	X34	Y34	Z34	X35	Y35	Z35	X36	Y36	Z36	X37	Y37	Z37	X38	Y38	Z38	X39	Y39	Z39	X40	Y40	Z40	X41	Y41	Z41	X42	Y42	Z42	X43	Y43	Z43	X44	Y44	Z44	X45	Y45	Z45	X46	Y46	Z46	X47	Y47	Z47	X48	Y48	Z48	X49	Y49	Z49	X50	Y50	Z50	X51	Y51	Z51	X52	Y52	Z52	X53	Y53	Z53	X54	Y54	Z54	

305	3.04	-238.5316314697266	1054.626953125	361.4196472167969	-116.4704742431641	1052.220703125	254.6990051269531	-178.2260437011719	1113.663940429688	295.4015808105469	-42.83676147460938	1306.14892578125	477.4549865722656	-184.0884552001953	1257.74169921875	272.3036804199219	-142.5731506347656	1524.50146484375	304.2928771972656	-61.16826629638672	1432.626953125	439.6205139160156	-240.6801910400391	1389.89306640625	305.4930419921875	-72.62583923339844	1482.638061523438	235.4723205566406	45.83100509643555	1488.641479492188	278.4085998535156	89.62364196777344	1364.045288085938	204.6461791992188	106.6386489868164	1149.387817382812	175.9304656982422	0.4628295600414276	1136.130493164062	186.9199523925781	115.2639236450195	888.173828125	257.7845153808594	100.6263275146484	882.0966796875	170.1498413085938	117.8878784179688	1032.979370117188	172.3157196044922	113.7963790893555	701.775146484375	272.6360168457031	120.6073532104492	790.5971069335938	187.6395568847656	137.4111480712891	793.7164916992188	257.1997985839844	-246.3760375976562	1510.934204101562	465.0462646484375	-314.5317077636719	1442.951782226562	490.44970703125	-370.7014770507812	1179.316528320312	468.2025451660156	-292.0609436035156	1148.953247070312	415.0824584960938	-272.7744140625	920.3053588867188	561.6719360351562	-362.5009155273438	904.4329223632812	546.5501708984375	-377.5634460449219	1102.140625	488.1984558105469	-246.2099761962891	736.2694702148438	570.7510375976562	-260.8917846679688	812.909423828125	599.3277587890625	-335.9085388183594	804.8636474609375	582.5335693359375	-27.34153175354004	1710.967163085938	344.7641296386719	-113.7065658569336	1706.819213867188	545.5140991210938	-18.12290000915527	1710.451049804688	526.3035888671875	-167.8848571777344	1703.516235351562	378.6398010253906	34.74253845214844	953.9395141601562	264.7621154785156	-244.6767578125	934.839599609375	511.5986328125	-127.1369171142578	977.24072265625	544.6346435546875	51.86934280395508	1001.637268066406	395.3842163085938	88.24910736083984	527.353759765625	411.7855834960938	84.99467468261719	655.642333984375	342.7854919433594	51.99614334106445	36.36627197265625	317.5697937011719	72.87696075439453	283.8926086425781	336.8585510253906	89.7164306640625	35.99163055419922	542.6983032226562	50.21425628662109	44.02600479125977	495.7130737304688	125.7119598388672	35.97551345825195	418.8800659179688	-26.1784610748291	43.85629653930664	278.4405212402344	-157.8105621337891	496.8638916015625	548.1659545898438	-208.6173248291016	770.7109375	541.2376098632812	-421.8738708496094	228.5662078857422	215.0409393310547	-212.53076171875	397.4307250976562	481.0817260742188	-286.5029296875	46.21894454956055	266.2176208496094	-293.5948791503906	105.9297103881836	228.3289184570312	-373.2179870605469	102.6016616821289	281.607177734375	-413.4666137695312	277.7362060546875	163.7997589111328	nan	nan	nan	
306	3.05	-233.2430419921875	1055.651733398438	364.8948364257812	-110.2222671508789	1053.0693359375	259.3973388671875	-171.7901306152344	1114.768676757812	299.7109069824219	-38.22179412841797	1307.1669921875	482.9070129394531	-177.3571166992188	1258.778198242188	276.3032836914062	-136.1051025390625	1525.5458984375	308.8846435546875	-56.12802124023438	1433.670166015625	444.9407653808594	-234.2260437011719	1391.0126953125	308.9662475585938	-65.4505615234375	1483.744506835938	240.7106018066406	52.48301696777344	1489.75146484375	284.8411560058594	97.29177856445312	1365.267700195312	211.5387268066406	115.512809753418	1150.6552734375	183.3065795898438	9.334662437438965	1136.933837890625	193.1887512207031	124.8857727050781	889.9025268554688	266.250244140625	111.0344314575195	883.3402709960938	178.4810180664062	127.4153442382812	1034.330810546875	180.1766967773438	124.4460754394531	703.500244140625	281.715087890625	131.4822845458984	792.0643310546875	196.5122833251953	147.7108154296875	795.5603637695312	266.2061462402344	-241.4977264404297	1512.000122070312	468.4933471679688	-310.0038146972656	1444.075073242188	493.1361389160156	-366.4189147949219	1180.585571289062	470.2885131835938	-286.772705078125	1150.125366210938	418.3232727050781	-270.0074157714844	921.450927734375	565.0243530273438	-359.5264282226562	905.6807861328125	548.7678833007812	-373.5653076171875	1103.431884765625	490.2026977539062	-243.752197265625	737.4332885742188	574.668701171875	-258.3983764648438	814.117431640625	602.9847412109375	-333.6739196777344	806.0982666015625	584.988037109375	-21.24805068969727	1712.0068359375	350.5445861816406	-109.1115264892578	1707.684814453125	550.6398315429688	-13.36231899261475	1711.234985351562	532.1716918945312	-162.0844268798828	1704.701171875	383.3462524414062	40.48244476318359	954.5015258789062	270.5534362792969	-240.6026000976562	936.4179077148438	515.763427734375	-123.2924346923828	978.7481079101562	549.266357421875	57.02287673950195	1002.218200683594	401.4392395019531	90.89476776123047	526.4960327148438	413.703857421875	88.649169921875	655.4244995117188	346.0882263183594	51.89517211914062	36.41519165039062	317.6266174316406	74.00613403320312	283.5978088378906	337.5848999023438	89.84495544433594	35.95902633666992	542.748046875	50.26013565063477	44.03697967529297	495.7615966796875	125.7474594116211	35.92108535766602	418.8702087402344	-26.22236251831055	43.99374389648438	278.5190124511719	-149.3673400878906	499.9832458496094	559.8448486328125	-203.8318328857422	773.0503540039062	547.7149047851562	-407.2132263183594	229.7587280273438	224.1386108398438	-202.9602355957031	400.5077819824219	492.6519165039062	-275.9434509277344	48.14375686645508	287.4109802246094	-280.7273559570312	106.1409149169922	246.463623046875	-361.943359375	106.6270980834961	297.6314392089844	-396.8267517089844	276.6272583007812	171.2219390869141	nan	nan	nan	
307	3.06	-228.2418060302734	1056.698974609375	368.3179321289062	-104.116813659668	1053.890747070312	264.0845947265625	-165.2480621337891	1115.84326171875	304.1440734863281	-33.72805404663086	1308.15771484375	488.3486328125	-170.7637786865234	1259.775024414062	280.3102111816406	-129.7294158935547	1526.553833007812	313.4889831542969	-51.19524765014648	1434.6884765625	450.2586059570312	-227.8582153320312	1392.086791992188	312.4509887695312	-58.36654281616211	1484.8271484375	245.9601745605469	59.00805282592773	1490.826538085938	291.28369140625	104.8240737915039	1366.467895507812	218.4396820068359	124.2446975708008	1151.896850585938	190.6840972900391	18.05255889892578	1137.727294921875	199.4499969482422	134.3639984130859	891.65771484375	274.84912109375	121.297233581543	884.5670166015625	186.9610443115234	136.7976684570312	1035.673461914062	188.0892181396484	135.0539093017578	705.3011474609375	291.1006164550781	142.1948699951172	793.5279541015625	205.5916900634766	157.873046875	797.4578857421875	275.4158935546875	-236.7269592285156	1513.022705078125	471.9229431152344	-305.5626831054688	1445.1474609375	495.811279296875	-362.1058044433594	1181.788696289062	472.38330078125	-281.4356079101562	1151.2275390625	421.6189880371094	-267.2807006835938	922.5481567382812	568.41259765625	-356.5803527832031	906.871826171875	550.97216796875	-369.5703430175781	1104.6591796875	492.2028198242188	-241.3593597412109	738.5408935546875	578.6495971679688	-256.1090698242188	815.2784423828125	606.6630859375	-331.4810180664062	807.2901611328125	587.4801635742188	-15.28825092315674	1713.034545898438	356.3731994628906	-104.6626434326172	1708.466064453125	555.7862548828125	-8.762910842895508	1711.942260742188	538.0759887695312	-156.3796844482422	1705.859497070312	388.0770568847656	46.01557922363281	955.046142578125	276.2972412109375	-236.6597137451172	938.008056640625	519.9154663085938	-119.5335159301758	980.2173461914062	553.8908081054688	62.04702758789062	1002.756958007812	407.4474487304688	93.49037170410156	525.6566772460938	415.4025573730469	92.15127563476562	655.19189453125	349.1712951660156	51.80962753295898	36.4501953125	317.6746215820312	75.08242797851562	283.3323669433594	338.19677734375	89.99015808105469	35.93552017211914	542.7918701171875	50.33152770996094	44.07234191894531	495.8078308105469	125.8032531738281	35.84893417358398	418.8475341796875	-26.23447036743164	44.1656608581543	278.5903625488281	-141.3994598388672	503.2726135253906	571.3548583984375	-199.3285369873047	775.4391479492188	554.0866088867188	-392.2782287597656	229.4100341796875	233.8209686279297	-193.7474365234375	403.5271911621094	504.2040710449219	-264.5328979492188	49.67277145385742	309.185302734375	-267.3514099121094	105.6952209472656	265.2231140136719	-349.9326477050781	109.6237945556641	314.2081604003906	-380.0303649902344	273.8487243652344	179.2875518798828	nan	nan	nan	
308	3.07	-223.4580383300781	1057.75244140625	371.7286987304688	-98.12959289550781	1054.684204101562	268.77587890625	-158.6520843505859	1116.869506835938	308.6766357421875	-29.34327125549316	1309.116333007812	493.7943725585938	-164.3075561523438	1260.73291015625	284.3328552246094	-123.4392166137695	1527.515625	318.1019897460938	-46.36732864379883	1435.674072265625	455.5777893066406	-221.5771636962891	1393.107788085938	315.9474182128906	-51.36822128295898	1485.87255859375	251.2246856689453	65.41908264160156	1491.851806640625	297.7469482421875	112.2379837036133	1367.630004882812	225.3632049560547	132.8267517089844	1153.099853515625	198.0674438476562	26.6143913269043	1138.497436523438	205.6914672851562	143.6745910644531	893.4236450195312	283.575927734375	131.4082183837891	885.7680053710938	195.5834350585938	146.0340576171875	1036.994262695312	196.0548706054688	145.5623626708984	707.1671752929688	300.778564453125	152.7422485351562	794.9779663085938	214.8742828369141	167.8612823486328	799.4016723632812	284.8223876953125	-232.0604858398438	1513.997314453125	475.3326721191406	-301.2066955566406	1446.166381835938	498.4709777832031	-357.7691040039062	1182.922485351562	474.4949951171875	-276.1276550292969	1152.24755859375	424.93408203125	-264.5994567871094	923.5859375	571.8240966796875	-353.671875	908.008056640625	553.1681518554688	-365.5757751464844	1105.818237304688	494.214111328125	-239.0380859375	739.5717163085938	582.6513061523438	-254.0007781982422	816.3873901367188	610.3443603515625	-329.3123474121094	808.4302978515625	590.0167846679688	-9.45217227935791	1714.0361328125	362.2471008300781	-100.3571701049805	1709.161499023438	560.9492797851562	-4.323985576629639	1712.568725585938	544.0096435546875	-150.7706451416016	1706.975708007812	392.8268432617188	51.37399673461914	955.5712890625	281.9905090332031	-232.8213348388672	939.5958862304688	524.0687866210938	-115.8295288085938	981.6392211914062	558.508544921875	66.95639801025391	1003.246520996094	413.4032897949219	96.03717041015625	524.8414916992188	416.9119567871094	95.51139068603516	654.9576416015625	352.0626220703125	51.73886489868164	36.47476959228516	317.7153625488281	76.11323547363281	283.0962219238281	338.7197265625	90.14958190917969	35.92341232299805	542.8325805664062	50.42774963378906	44.13162994384766	495.8518676757812	125.877555847168	35.76021957397461	418.814697265625	-26.22524642944336	44.36672592163086	278.65283203125	-133.9183349609375	506.69189453125	582.6836547851562	-195.069580078125	777.86083984375	560.3505859375	-377.1173400878906	227.5257263183594	244.1394958496094	-184.9024963378906	406.4157409667969	515.7489013671875	-252.2891387939453	50.74978256225586	331.3438110351562	-253.4871520996094	104.6037521362305	284.50634765625	-337.2580871582031	111.5092391967773	331.1980590820312	-363.1512145996094	269.4790649414062	188.0999603271484	nan	nan	nan	
